<svg width="77" height="15" viewBox="0 0 77 15" fill="none" xmlns="http://www.w3.org/2000/svg">
<g clip-path="url(#clip0_18341_13286)">
<g clip-path="url(#clip1_18341_13286)">
<path d="M76.9647 0.00691911L76.9623 0L74.9251 6.14784H69.2279L73.8794 9.26683L71.9503 15L76.9623 11.3401L76.9647 11.3418V0.00691911Z" fill="#AA832F"/>
<path d="M2.72236 15L4.65144 9.26683L0 6.14784H5.69712L7.73437 0L9.80769 6.14784H15.4687L10.8173 9.26683L12.7825 15L7.73437 11.3401L2.72236 15Z" fill="#AA832F"/>
<path d="M20.0293 15L21.9584 9.26683L17.307 6.14784H23.0041L25.0414 0L27.1147 6.14784H32.7757L28.1243 9.26683L30.0894 15L25.0414 11.3401L20.0293 15Z" fill="#AA832F"/>
<path d="M39.2654 9.26683L37.3363 15L42.3483 11.3401L47.3964 15L45.4313 9.26683L50.0827 6.14784H44.4217L42.3483 0L40.3111 6.14784H34.614L39.2654 9.26683Z" fill="#AA832F"/>
<path d="M54.6433 15L56.5724 9.26683L51.921 6.14784H57.6181L59.6553 0L61.7287 6.14784H67.3897L62.7383 9.26683L64.7034 15L59.6553 11.3401L54.6433 15Z" fill="#AA832F"/>
</g>
</g>
<defs>
<clipPath id="clip0_18341_13286">
<rect width="77" height="15" fill="white"/>
</clipPath>
<clipPath id="clip1_18341_13286">
<rect width="77" height="15" fill="white"/>
</clipPath>
</defs>
</svg>
